<svg width="141" height="40" viewBox="0 0 141 40" fill="none" xmlns="http://www.w3.org/2000/svg">
<rect width="141" height="40" rx="8" fill="white"/>
<path d="M29.8505 36.508C28.9211 36.916 27.9125 37.12 26.8245 37.12C24.6258 37.12 22.7671 35.9753 21.2485 33.686L19.7865 31.476C16.8625 31.4307 14.5278 30.4333 12.7825 28.484C10.9918 26.4213 10.0965 23.5767 10.0965 19.95C10.0965 16.1873 11.0258 13.3087 12.8845 11.314C14.6298 9.43266 17.0325 8.492 20.0925 8.492C23.1298 8.492 25.5438 9.45533 27.3345 11.382C29.1931 13.3767 30.1225 16.2327 30.1225 19.95C30.1225 23.01 29.5331 25.458 28.3545 27.294C27.1758 29.1073 25.5891 30.3313 23.5945 30.966L24.1385 31.816C24.6825 32.6547 25.4871 33.0967 26.5525 33.142C27.5271 33.142 28.6265 32.8813 29.8505 32.36V36.508ZM25.9745 20.018C25.9745 17.4793 25.4418 15.53 24.3765 14.17C23.3338 12.7873 21.9171 12.096 20.1265 12.096C18.3358 12.096 16.9078 12.7873 15.8425 14.17C14.7771 15.53 14.2445 17.4793 14.2445 20.018C14.2445 22.534 14.7771 24.472 15.8425 25.832C16.9078 27.1693 18.3358 27.838 20.1265 27.838C21.9171 27.838 23.3338 27.1693 24.3765 25.832C25.4418 24.472 25.9745 22.534 25.9745 20.018ZM46.2911 28.008C45.2484 30.2067 43.5711 31.306 41.2591 31.306C38.3351 31.306 36.4084 30.1613 35.4791 27.872C35.1391 27.0787 34.9691 26.1153 34.9691 24.982V14.442H38.9811V24.574C38.9811 25.662 39.2417 26.478 39.7631 27.022C40.2844 27.5433 40.9191 27.804 41.6671 27.804C42.4377 27.804 43.0837 27.702 43.6051 27.498C44.1264 27.2713 44.5797 26.9427 44.9651 26.512C45.8037 25.5373 46.2457 24.234 46.2911 22.602V14.442H50.3031V31H46.2911V28.008ZM57.3055 14.442H61.3175V31H57.3055V14.442ZM56.8295 9.138C56.8295 8.41267 57.0448 7.846 57.4755 7.438C57.9061 7.00733 58.5181 6.792 59.3115 6.792C60.0821 6.792 60.6828 7.00733 61.1135 7.438C61.5668 7.846 61.7935 8.41267 61.7935 9.138C61.7935 9.86333 61.5668 10.4413 61.1135 10.872C60.6828 11.28 60.0821 11.484 59.3115 11.484C58.5181 11.484 57.9061 11.28 57.4755 10.872C57.0448 10.4413 56.8295 9.86333 56.8295 9.138ZM67.2377 27.736L75.8057 17.74H67.2377V14.476H80.2257V17.74L71.9297 27.736H80.2257V31H67.2377V27.736ZM84.4117 27.736L92.9797 17.74H84.4117V14.476H97.3997V17.74L89.1037 27.736H97.3997V31H84.4117V27.736ZM114.336 16.448C114.902 17.1733 115.322 18.012 115.594 18.964C115.888 19.916 116.036 20.7887 116.036 21.582C116.036 22.3753 115.99 23.0893 115.9 23.724H105.224C105.269 25.0613 105.598 26.1493 106.21 26.988C106.822 27.8267 107.751 28.246 108.998 28.246C110.652 28.246 111.638 27.5207 111.956 26.07H116.002C115.73 27.7247 114.97 29.028 113.724 29.98C112.432 30.9773 110.856 31.476 108.998 31.476C106.822 31.476 104.997 30.6827 103.524 29.096C102.005 27.4413 101.246 25.322 101.246 22.738C101.246 20.086 102.005 17.9553 103.524 16.346C104.974 14.8047 106.799 14.034 108.998 14.034C111.287 14.034 113.066 14.8387 114.336 16.448ZM109.032 17.23C107.898 17.23 107.014 17.604 106.38 18.352C105.745 19.0773 105.371 20.018 105.258 21.174H112.296C112.296 19.3833 111.729 18.182 110.596 17.57C110.165 17.3433 109.644 17.23 109.032 17.23ZM125.191 17.74C126.188 15.36 127.684 14.17 129.679 14.17C130.064 14.17 130.552 14.2493 131.141 14.408L131.073 18.42C130.438 18.284 129.815 18.216 129.203 18.216C126.528 18.216 125.191 20.0633 125.191 23.758V31H121.179V14.442H125.191V17.74Z" fill="#9B51E0"/>
<mask id="mask0" mask-type="alpha" maskUnits="userSpaceOnUse" x="-5" y="3" width="152" height="34">
<path d="M3.75994 23.8161C1.45731 25.3404 -1.64499 24.7094 -3.16926 22.4068C-4.69353 20.1042 -4.06256 17.0019 -1.75994 15.4776L3.75994 23.8161ZM138.24 15.4778C140.543 13.9535 143.645 14.5845 145.169 16.8871C146.694 19.1897 146.063 22.292 143.76 23.8163L138.24 15.4778ZM-1.75994 15.4776C17.0803 3.00593 33.5391 1.48743 46.7057 4.0514C59.5235 6.54743 69.1133 13.0034 73.3289 15.2224L68.6711 24.0714C63.3867 21.2899 55.7265 15.9959 44.7943 13.867C34.2109 11.8061 20.4197 12.7878 3.75994 23.8161L-1.75994 15.4776ZM143.76 23.8163C124.92 36.288 108.461 37.8064 95.2943 35.2424C82.4765 32.7463 72.8867 26.2903 68.6711 24.0714L73.3289 15.2224C78.6133 18.0039 86.2735 23.2979 97.2057 25.4268C107.789 27.4878 121.58 26.5061 138.24 15.4778L143.76 23.8163Z" fill="#C4C4C4"/>
</mask>
<g mask="url(#mask0)">
<path d="M29.8505 36.508C28.9211 36.916 27.9125 37.12 26.8245 37.12C24.6258 37.12 22.7671 35.9753 21.2485 33.686L19.7865 31.476C16.8625 31.4307 14.5278 30.4333 12.7825 28.484C10.9918 26.4213 10.0965 23.5767 10.0965 19.95C10.0965 16.1873 11.0258 13.3087 12.8845 11.314C14.6298 9.43266 17.0325 8.492 20.0925 8.492C23.1298 8.492 25.5438 9.45533 27.3345 11.382C29.1931 13.3767 30.1225 16.2327 30.1225 19.95C30.1225 23.01 29.5331 25.458 28.3545 27.294C27.1758 29.1073 25.5891 30.3313 23.5945 30.966L24.1385 31.816C24.6825 32.6547 25.4871 33.0967 26.5525 33.142C27.5271 33.142 28.6265 32.8813 29.8505 32.36V36.508ZM25.9745 20.018C25.9745 17.4793 25.4418 15.53 24.3765 14.17C23.3338 12.7873 21.9171 12.096 20.1265 12.096C18.3358 12.096 16.9078 12.7873 15.8425 14.17C14.7771 15.53 14.2445 17.4793 14.2445 20.018C14.2445 22.534 14.7771 24.472 15.8425 25.832C16.9078 27.1693 18.3358 27.838 20.1265 27.838C21.9171 27.838 23.3338 27.1693 24.3765 25.832C25.4418 24.472 25.9745 22.534 25.9745 20.018ZM46.2911 28.008C45.2484 30.2067 43.5711 31.306 41.2591 31.306C38.3351 31.306 36.4084 30.1613 35.4791 27.872C35.1391 27.0787 34.9691 26.1153 34.9691 24.982V14.442H38.9811V24.574C38.9811 25.662 39.2417 26.478 39.7631 27.022C40.2844 27.5433 40.9191 27.804 41.6671 27.804C42.4377 27.804 43.0837 27.702 43.6051 27.498C44.1264 27.2713 44.5797 26.9427 44.9651 26.512C45.8037 25.5373 46.2457 24.234 46.2911 22.602V14.442H50.3031V31H46.2911V28.008ZM57.3055 14.442H61.3175V31H57.3055V14.442ZM56.8295 9.138C56.8295 8.41267 57.0448 7.846 57.4755 7.438C57.9061 7.00733 58.5181 6.792 59.3115 6.792C60.0821 6.792 60.6828 7.00733 61.1135 7.438C61.5668 7.846 61.7935 8.41267 61.7935 9.138C61.7935 9.86333 61.5668 10.4413 61.1135 10.872C60.6828 11.28 60.0821 11.484 59.3115 11.484C58.5181 11.484 57.9061 11.28 57.4755 10.872C57.0448 10.4413 56.8295 9.86333 56.8295 9.138ZM67.2377 27.736L75.8057 17.74H67.2377V14.476H80.2257V17.74L71.9297 27.736H80.2257V31H67.2377V27.736ZM84.4117 27.736L92.9797 17.74H84.4117V14.476H97.3997V17.74L89.1037 27.736H97.3997V31H84.4117V27.736ZM114.336 16.448C114.902 17.1733 115.322 18.012 115.594 18.964C115.888 19.916 116.036 20.7887 116.036 21.582C116.036 22.3753 115.99 23.0893 115.9 23.724H105.224C105.269 25.0613 105.598 26.1493 106.21 26.988C106.822 27.8267 107.751 28.246 108.998 28.246C110.652 28.246 111.638 27.5207 111.956 26.07H116.002C115.73 27.7247 114.97 29.028 113.724 29.98C112.432 30.9773 110.856 31.476 108.998 31.476C106.822 31.476 104.997 30.6827 103.524 29.096C102.005 27.4413 101.246 25.322 101.246 22.738C101.246 20.086 102.005 17.9553 103.524 16.346C104.974 14.8047 106.799 14.034 108.998 14.034C111.287 14.034 113.066 14.8387 114.336 16.448ZM109.032 17.23C107.898 17.23 107.014 17.604 106.38 18.352C105.745 19.0773 105.371 20.018 105.258 21.174H112.296C112.296 19.3833 111.729 18.182 110.596 17.57C110.165 17.3433 109.644 17.23 109.032 17.23ZM125.191 17.74C126.188 15.36 127.684 14.17 129.679 14.17C130.064 14.17 130.552 14.2493 131.141 14.408L131.073 18.42C130.438 18.284 129.815 18.216 129.203 18.216C126.528 18.216 125.191 20.0633 125.191 23.758V31H121.179V14.442H125.191V17.74Z" fill="#F2C94C"/>
</g>
</svg>
